<svg id="Layer_1" data-name="Layer 1" xmlns="http://www.w3.org/2000/svg" xmlns:xlink="http://www.w3.org/1999/xlink" viewBox="0 0 114 33"><defs><style>.cls-1{fill:url(#linear-gradient);}.cls-2{fill:url(#linear-gradient-2);}.cls-3{fill:#ae42c3;}</style><linearGradient id="linear-gradient" x1="14.86" y1="41.38" x2="35.59" y2="11.11" gradientUnits="userSpaceOnUse"><stop offset="0.16" stop-color="#6800ff"/><stop offset="1" stop-color="#ae40c4"/></linearGradient><linearGradient id="linear-gradient-2" x1="3.74" y1="33.76" x2="24.46" y2="3.49" xlink:href="#linear-gradient"/></defs><path class="cls-1" d="M25.89,25.83a1.67,1.67,0,0,0-1.18-.48h0A1.63,1.63,0,0,0,23.08,27a1.65,1.65,0,0,0,.5,1.18,1.58,1.58,0,0,0,1.1.45h.08a1.63,1.63,0,0,0,1.1-.44,1.68,1.68,0,0,0,0-2.34Z"/><path class="cls-2" d="M26.91,5.67a15.66,15.66,0,0,0-11-4.56h0a15.27,15.27,0,0,0-14,21.35c.18.4.37.79.58,1.18h0c.17.31.3.52.5.86L2.4,28.67a2.11,2.11,0,0,0,0,.75,1.78,1.78,0,0,0,1.94,1.41c.18,0,.35-.06.52-.09l.11,0,3.56-.78c.08,0,.13,0,.16,0l.1,0h0l.73.35c.22.1.44.21.67.3l0,0,.21.07c.3.12.61.24.92.33a12.76,12.76,0,0,0,2.67.53l.24,0,1,.06v0l.33,0h.79A14.1,14.1,0,0,0,20.53,31,3.14,3.14,0,0,0,21,30.9a1.58,1.58,0,0,0,.55-.34A1.63,1.63,0,0,0,22,29.38a1.57,1.57,0,0,0-.46-1.15,1.68,1.68,0,0,0-1.18-.49h0a2,2,0,0,0-.49.08l0,0a11.23,11.23,0,0,1-3.57.59h-.62a11.5,11.5,0,0,1-3.95-.71l-.26-.1a12.88,12.88,0,0,1-1.3-.62l-.46-.26a1.5,1.5,0,0,0-1.12-.21l-.65.14-2,.43h0l.21-1.63c0-.26.06-.52.1-.79A2.06,2.06,0,0,0,6,23.28l-.29-.47a13.12,13.12,0,0,1-.82-1.52,12,12,0,0,1,11-16.93h0A12.35,12.35,0,0,1,24.58,8a11.76,11.76,0,0,1,3.28,6.7A13.41,13.41,0,0,1,28,16.46c0,.41,0,.82-.07,1.22s-.25,1.61-.26,1.66l-.06.25c0,.07-.05.14-.07.21a2,2,0,0,1-.37.56,1.65,1.65,0,0,1-1.1.44H26a1.58,1.58,0,0,1-1.1-.45,1.65,1.65,0,0,1-.5-1.18,1.76,1.76,0,0,1,0-.33s0-.21.05-.26a8.83,8.83,0,0,0,.27-2.14,8.68,8.68,0,0,0-2.49-6.21,9,9,0,0,0-6.33-2.62h0A8.79,8.79,0,0,0,9.84,22.75a8.46,8.46,0,0,0,5.9,2.43h.45a8.73,8.73,0,0,0,5.88-2.4l.32-.34a2.83,2.83,0,0,0,.24.25A4.69,4.69,0,0,0,25.36,24a4.91,4.91,0,0,0,.55,0h.24a4.84,4.84,0,0,0,3.28-1.34,4.77,4.77,0,0,0,1.18-1.84,9.23,9.23,0,0,0,.26-.89,20.28,20.28,0,0,0,.38-3.51A15.07,15.07,0,0,0,26.91,5.67ZM19.8,20.42a5.49,5.49,0,0,1-3.71,1.51h-.28a5.27,5.27,0,0,1-3.71-1.54,5.53,5.53,0,0,1,3.81-9.53h0a5.71,5.71,0,0,1,4,1.65,5.65,5.65,0,0,1-.11,7.91Z"/><path d="M39.37,20.21l.07,0,3.31-.89.06.14a3.8,3.8,0,0,0,3.53,2c1.81,0,3-.8,3-2.12,0-2.12-3.93-1.11-6.75-2.27A3.89,3.89,0,0,1,40,13.24c0-2.76,2.7-4.91,6.14-4.91s5.51,1.71,6.2,4.12v0L49,13.37a2.84,2.84,0,0,0-2.92-2.18c-1.56,0-2.64.92-2.64,2,0,2.3,4.39,1.38,7,2.52A3.7,3.7,0,0,1,53,19.32c0,3.13-2.83,5.16-6.76,5.16C43.17,24.48,40.35,22.94,39.37,20.21Z"/><path d="M113.86,14.79h0a7.28,7.28,0,0,0-7.57-6.36,7.86,7.86,0,0,0-8,8.08,7.9,7.9,0,0,0,8,8,8.13,8.13,0,0,0,6.47-3.07l.46-.6.34-.52-3.16-.85,0,0a5.18,5.18,0,0,1-4.13,1.85,4.26,4.26,0,0,1-4.29-3.2h11.92l0-.61c0-.43,0-.8,0-1.17A10.89,10.89,0,0,0,113.86,14.79Zm-7.53-3.39a4.13,4.13,0,0,1,4.17,3.38H102A4.34,4.34,0,0,1,106.33,11.4Z"/><polygon points="99.03 8.42 94.21 8.42 89.2 14.39 86.4 14.39 86.4 1.12 82.65 1.12 82.65 24.37 86.4 24.37 86.4 18.25 88.83 18.25 93.67 24.37 98.4 24.37 92.05 16.54 99.03 8.42"/><path d="M64.32,8.42a6.1,6.1,0,0,0-4.9,2.37V8.42H55.67V31.68h3.75V22.33c1.1,1.6,3.43,2.09,5,2.09,4.9,0,7.72-3.54,7.72-8A7.65,7.65,0,0,0,64.32,8.42Zm-.41,12.44a4.53,4.53,0,0,1-4.5-4.57,4.5,4.5,0,0,1,9,0A4.57,4.57,0,0,1,63.91,20.86Z"/><rect x="75.23" y="8.42" width="3.75" height="15.94"/><path class="cls-3" d="M74.85,4a2.25,2.25,0,0,1,4.5,0,2.25,2.25,0,1,1-4.5,0Z"/></svg>